<mxfile host="Electron" agent="Mozilla/5.0 (Windows NT 10.0; Win64; x64) AppleWebKit/537.36 (KHTML, like Gecko) draw.io/24.7.17 Chrome/128.0.6613.36 Electron/32.0.1 Safari/537.36" version="24.7.17">
  <diagram name="Page-1" id="ZQrZeGTeutHWm-gUU09g">
    <mxGraphModel dx="1098" dy="735" grid="1" gridSize="10" guides="1" tooltips="1" connect="1" arrows="1" fold="1" page="1" pageScale="1" pageWidth="2339" pageHeight="3300" math="0" shadow="0">
      <root>
        <mxCell id="0" />
        <mxCell id="1" parent="0" />
        <mxCell id="kLpWOpcQDP0Isk03ZWDR-10" value="Drivers in memory" style="rounded=1;whiteSpace=wrap;html=1;align=center;verticalAlign=top;" vertex="1" parent="1">
          <mxGeometry x="880" y="120" width="150" height="380" as="geometry" />
        </mxCell>
        <mxCell id="kLpWOpcQDP0Isk03ZWDR-18" style="edgeStyle=orthogonalEdgeStyle;rounded=0;orthogonalLoop=1;jettySize=auto;html=1;entryX=0.5;entryY=0;entryDx=0;entryDy=0;" edge="1" parent="1" source="kLpWOpcQDP0Isk03ZWDR-1" target="kLpWOpcQDP0Isk03ZWDR-11">
          <mxGeometry relative="1" as="geometry" />
        </mxCell>
        <mxCell id="kLpWOpcQDP0Isk03ZWDR-1" value="Interrupt controller" style="rounded=1;whiteSpace=wrap;html=1;verticalAlign=top;" vertex="1" parent="1">
          <mxGeometry x="440" y="140" width="180" height="300" as="geometry" />
        </mxCell>
        <mxCell id="kLpWOpcQDP0Isk03ZWDR-2" value="IRQ&amp;nbsp; &amp;nbsp; &amp;nbsp; &amp;nbsp; &amp;nbsp; &amp;nbsp; &amp;nbsp; &amp;nbsp; &amp;nbsp; Subroutine&lt;div&gt;1&amp;nbsp; &amp;nbsp; &amp;nbsp; &amp;nbsp; &amp;nbsp; &amp;nbsp; &amp;nbsp; &amp;nbsp; &amp;nbsp; &amp;nbsp; &amp;nbsp; &amp;nbsp;0xff04&lt;/div&gt;&lt;div&gt;2&amp;nbsp; &amp;nbsp; &amp;nbsp; &amp;nbsp; &amp;nbsp; &amp;nbsp; &amp;nbsp; &amp;nbsp; &amp;nbsp; &amp;nbsp; &amp;nbsp; &amp;nbsp;0xdcff&lt;/div&gt;&lt;div&gt;3&amp;nbsp; &amp;nbsp; &amp;nbsp; &amp;nbsp; &amp;nbsp; &amp;nbsp; &amp;nbsp; &amp;nbsp; &amp;nbsp; &amp;nbsp; &amp;nbsp; &amp;nbsp;0xcff5&lt;/div&gt;&lt;div&gt;4&amp;nbsp; &amp;nbsp; &amp;nbsp; &amp;nbsp; &amp;nbsp; &amp;nbsp; &amp;nbsp; &amp;nbsp; &amp;nbsp; &amp;nbsp; &amp;nbsp; &amp;nbsp;0xcddd&lt;/div&gt;&lt;div&gt;etc&lt;span style=&quot;white-space: pre;&quot;&gt;&#x9;&lt;/span&gt;&amp;nbsp; &amp;nbsp; &amp;nbsp; &amp;nbsp; &amp;nbsp; &amp;nbsp; &amp;nbsp; &amp;nbsp; &amp;nbsp;etc&lt;/div&gt;" style="text;html=1;align=left;verticalAlign=middle;whiteSpace=wrap;rounded=0;" vertex="1" parent="1">
          <mxGeometry x="460" y="180" width="150" height="150" as="geometry" />
        </mxCell>
        <mxCell id="kLpWOpcQDP0Isk03ZWDR-3" value="Disk Controller" style="rounded=1;whiteSpace=wrap;html=1;" vertex="1" parent="1">
          <mxGeometry x="200" y="150" width="120" height="60" as="geometry" />
        </mxCell>
        <mxCell id="kLpWOpcQDP0Isk03ZWDR-4" value="Clock" style="rounded=1;whiteSpace=wrap;html=1;" vertex="1" parent="1">
          <mxGeometry x="200" y="230" width="120" height="60" as="geometry" />
        </mxCell>
        <mxCell id="kLpWOpcQDP0Isk03ZWDR-17" style="edgeStyle=orthogonalEdgeStyle;rounded=0;orthogonalLoop=1;jettySize=auto;html=1;entryX=-0.02;entryY=0.567;entryDx=0;entryDy=0;entryPerimeter=0;" edge="1" parent="1" source="kLpWOpcQDP0Isk03ZWDR-5" target="kLpWOpcQDP0Isk03ZWDR-2">
          <mxGeometry relative="1" as="geometry">
            <Array as="points">
              <mxPoint x="400" y="340" />
              <mxPoint x="400" y="265" />
            </Array>
          </mxGeometry>
        </mxCell>
        <mxCell id="kLpWOpcQDP0Isk03ZWDR-5" value="Keyboard" style="rounded=1;whiteSpace=wrap;html=1;" vertex="1" parent="1">
          <mxGeometry x="200" y="310" width="120" height="60" as="geometry" />
        </mxCell>
        <mxCell id="kLpWOpcQDP0Isk03ZWDR-7" value="0xff04&lt;div&gt;Disk Driver&lt;/div&gt;" style="shape=document;whiteSpace=wrap;html=1;boundedLbl=1;" vertex="1" parent="1">
          <mxGeometry x="890" y="150" width="120" height="60" as="geometry" />
        </mxCell>
        <mxCell id="kLpWOpcQDP0Isk03ZWDR-8" value="0xdcff&lt;div&gt;Scheduller&lt;/div&gt;" style="shape=document;whiteSpace=wrap;html=1;boundedLbl=1;" vertex="1" parent="1">
          <mxGeometry x="890" y="240" width="120" height="60" as="geometry" />
        </mxCell>
        <mxCell id="kLpWOpcQDP0Isk03ZWDR-9" value="&lt;div&gt;0xcddd&lt;/div&gt;Keyboard Handler" style="shape=document;whiteSpace=wrap;html=1;boundedLbl=1;" vertex="1" parent="1">
          <mxGeometry x="890" y="330" width="120" height="60" as="geometry" />
        </mxCell>
        <mxCell id="kLpWOpcQDP0Isk03ZWDR-11" value="CPU" style="rounded=1;whiteSpace=wrap;html=1;verticalAlign=top;" vertex="1" parent="1">
          <mxGeometry x="440" y="560" width="180" height="140" as="geometry" />
        </mxCell>
        <mxCell id="kLpWOpcQDP0Isk03ZWDR-12" value="PC" style="rounded=1;whiteSpace=wrap;html=1;" vertex="1" parent="1">
          <mxGeometry x="460" y="590" width="120" height="20" as="geometry" />
        </mxCell>
        <mxCell id="kLpWOpcQDP0Isk03ZWDR-13" value="LR" style="rounded=1;whiteSpace=wrap;html=1;" vertex="1" parent="1">
          <mxGeometry x="460" y="620" width="120" height="20" as="geometry" />
        </mxCell>
        <mxCell id="kLpWOpcQDP0Isk03ZWDR-14" value="SP" style="rounded=1;whiteSpace=wrap;html=1;" vertex="1" parent="1">
          <mxGeometry x="460" y="650" width="120" height="20" as="geometry" />
        </mxCell>
        <mxCell id="kLpWOpcQDP0Isk03ZWDR-15" style="edgeStyle=orthogonalEdgeStyle;rounded=0;orthogonalLoop=1;jettySize=auto;html=1;entryX=0.01;entryY=0.36;entryDx=0;entryDy=0;entryPerimeter=0;" edge="1" parent="1" source="kLpWOpcQDP0Isk03ZWDR-3" target="kLpWOpcQDP0Isk03ZWDR-2">
          <mxGeometry relative="1" as="geometry">
            <mxPoint x="410" y="200" as="targetPoint" />
          </mxGeometry>
        </mxCell>
        <mxCell id="kLpWOpcQDP0Isk03ZWDR-16" style="edgeStyle=orthogonalEdgeStyle;rounded=0;orthogonalLoop=1;jettySize=auto;html=1;entryX=0.005;entryY=0.453;entryDx=0;entryDy=0;entryPerimeter=0;" edge="1" parent="1" source="kLpWOpcQDP0Isk03ZWDR-4" target="kLpWOpcQDP0Isk03ZWDR-2">
          <mxGeometry relative="1" as="geometry" />
        </mxCell>
        <mxCell id="kLpWOpcQDP0Isk03ZWDR-20" style="edgeStyle=orthogonalEdgeStyle;rounded=0;orthogonalLoop=1;jettySize=auto;html=1;entryX=0.867;entryY=0.333;entryDx=0;entryDy=0;entryPerimeter=0;" edge="1" parent="1" source="kLpWOpcQDP0Isk03ZWDR-7" target="kLpWOpcQDP0Isk03ZWDR-2">
          <mxGeometry relative="1" as="geometry" />
        </mxCell>
        <mxCell id="kLpWOpcQDP0Isk03ZWDR-21" style="edgeStyle=orthogonalEdgeStyle;rounded=0;orthogonalLoop=1;jettySize=auto;html=1;entryX=0.867;entryY=0.467;entryDx=0;entryDy=0;entryPerimeter=0;" edge="1" parent="1" source="kLpWOpcQDP0Isk03ZWDR-8" target="kLpWOpcQDP0Isk03ZWDR-2">
          <mxGeometry relative="1" as="geometry" />
        </mxCell>
        <mxCell id="kLpWOpcQDP0Isk03ZWDR-23" style="edgeStyle=orthogonalEdgeStyle;rounded=0;orthogonalLoop=1;jettySize=auto;html=1;entryX=0.867;entryY=0.533;entryDx=0;entryDy=0;entryPerimeter=0;" edge="1" parent="1" source="kLpWOpcQDP0Isk03ZWDR-9" target="kLpWOpcQDP0Isk03ZWDR-2">
          <mxGeometry relative="1" as="geometry">
            <Array as="points">
              <mxPoint x="700" y="360" />
              <mxPoint x="700" y="260" />
            </Array>
          </mxGeometry>
        </mxCell>
        <mxCell id="kLpWOpcQDP0Isk03ZWDR-24" value="GPIO Pins" style="rounded=1;whiteSpace=wrap;html=1;" vertex="1" parent="1">
          <mxGeometry x="200" y="400" width="120" height="60" as="geometry" />
        </mxCell>
        <mxCell id="kLpWOpcQDP0Isk03ZWDR-25" style="edgeStyle=orthogonalEdgeStyle;rounded=0;orthogonalLoop=1;jettySize=auto;html=1;entryX=-0.007;entryY=0.64;entryDx=0;entryDy=0;entryPerimeter=0;" edge="1" parent="1" source="kLpWOpcQDP0Isk03ZWDR-24" target="kLpWOpcQDP0Isk03ZWDR-2">
          <mxGeometry relative="1" as="geometry">
            <Array as="points">
              <mxPoint x="420" y="430" />
              <mxPoint x="420" y="276" />
            </Array>
          </mxGeometry>
        </mxCell>
        <mxCell id="kLpWOpcQDP0Isk03ZWDR-26" value="&lt;div&gt;0xfcdd&lt;/div&gt;GPIO Handler" style="shape=document;whiteSpace=wrap;html=1;boundedLbl=1;" vertex="1" parent="1">
          <mxGeometry x="890" y="410" width="120" height="60" as="geometry" />
        </mxCell>
        <mxCell id="kLpWOpcQDP0Isk03ZWDR-29" style="edgeStyle=orthogonalEdgeStyle;rounded=0;orthogonalLoop=1;jettySize=auto;html=1;entryX=0.867;entryY=0.667;entryDx=0;entryDy=0;entryPerimeter=0;" edge="1" parent="1" source="kLpWOpcQDP0Isk03ZWDR-26" target="kLpWOpcQDP0Isk03ZWDR-2">
          <mxGeometry relative="1" as="geometry">
            <Array as="points">
              <mxPoint x="670" y="440" />
              <mxPoint x="670" y="280" />
            </Array>
          </mxGeometry>
        </mxCell>
        <mxCell id="kLpWOpcQDP0Isk03ZWDR-30" value="Each Peripheral can cause an interrupt to the interrupt controller" style="text;html=1;align=left;verticalAlign=middle;whiteSpace=wrap;rounded=0;" vertex="1" parent="1">
          <mxGeometry x="200" y="110" width="190" height="30" as="geometry" />
        </mxCell>
        <mxCell id="kLpWOpcQDP0Isk03ZWDR-31" value="The interrupt controller uas the same effect as a branch instruction. It pushes the subroutine address into the PC and causes a jump to the routine.&amp;nbsp;" style="text;html=1;align=left;verticalAlign=middle;whiteSpace=wrap;rounded=0;" vertex="1" parent="1">
          <mxGeometry x="350" y="480" width="170" height="40" as="geometry" />
        </mxCell>
        <mxCell id="kLpWOpcQDP0Isk03ZWDR-32" value="Drivers are programes in memory which handle the specific requirements of each peripheral." style="text;html=1;align=left;verticalAlign=middle;whiteSpace=wrap;rounded=0;" vertex="1" parent="1">
          <mxGeometry x="870" y="520" width="170" height="30" as="geometry" />
        </mxCell>
      </root>
    </mxGraphModel>
  </diagram>
</mxfile>
